<svg width="24" height="24" viewBox="0 0 24 24" fill="none" xmlns="http://www.w3.org/2000/svg">
<path d="M18.4385 21.2157C17.4611 21.2157 16.6614 20.416 16.6614 19.4385C16.6614 18.4611 17.4611 17.6614 18.4385 17.6614C19.4159 17.6614 20.2157 18.4611 20.2157 19.4385C20.2157 20.416 19.4159 21.2157 18.4385 21.2157ZM9.10855 21.2157C8.13112 21.2157 7.33141 20.416 7.33141 19.4385C7.33141 18.4611 8.13112 17.6614 9.10855 17.6614C10.086 17.6614 10.8857 18.4611 10.8857 19.4385C10.8857 20.416 10.086 21.2157 9.10855 21.2157ZM17.7055 16.3285H10.2859C9.10855 16.3285 8.0867 15.551 7.79791 14.4181L6.02077 7.44284L5.35435 4.77714H2.88857C2.39986 4.77714 2 4.37728 2 3.88857C2 3.39986 2.39986 3 2.88857 3H6.04299C6.44284 3 6.79827 3.26657 6.90934 3.66643L7.57577 6.33213H21.1042C21.3708 6.33213 21.6374 6.46542 21.8151 6.66535C21.9928 6.86527 22.0372 7.15406 21.9706 7.42063L20.1934 14.3959C19.9047 15.551 18.8828 16.3285 17.7055 16.3285ZM8.02005 8.10927L9.50841 13.9738C9.59726 14.307 9.90826 14.5514 10.2637 14.5514H17.6832C18.0387 14.5514 18.3497 14.307 18.4385 13.9738L19.9713 8.10927H8.02005Z" fill="black"/>
</svg>
