<svg width="24" height="24" viewBox="0 0 24 24" fill="none" xmlns="http://www.w3.org/2000/svg">
<path fill-rule="evenodd" clip-rule="evenodd" d="M11.7127 16.2008H19.034C20.6818 16.2008 22 14.8826 22 13.276V5.92482C22 4.31823 20.6612 3 19.034 3H4.96601C3.31823 3 2 4.31823 2 5.92482V13.276C2 14.9032 3.31823 16.2008 4.94542 16.2008H5.64573V20.3841C5.64573 20.7549 5.8723 21.0844 6.20185 21.2492C6.34604 21.311 6.46962 21.3316 6.6138 21.3316C6.84037 21.3316 7.04634 21.2492 7.23172 21.105L11.7127 16.2008ZM7.64573 17.6869L10.8309 14.2008H19.034C19.5955 14.2008 20 13.7599 20 13.276V5.92482C20 5.44996 19.584 5 19.034 5H4.96601C4.40454 5 4 5.44097 4 5.92482V13.276C4 13.7804 4.40445 14.2008 4.94542 14.2008H7.64573V17.6869Z" fill="black"/>
</svg>
