<svg width="240" height="40" viewBox="0 0 240 40" fill="none" xmlns="http://www.w3.org/2000/svg">
<path fill-rule="evenodd" clip-rule="evenodd" d="M38.4811 14.2252C38.4067 14.1204 38.3079 14.0352 38.1932 13.9772C38.0785 13.9192 37.9514 13.89 37.8228 13.8921H23.3541L30.569 2.35957C30.6651 2.20445 30.7137 2.02452 30.7086 1.84207C30.7035 1.65962 30.645 1.48267 30.5403 1.33315C30.4649 1.22816 30.3651 1.14303 30.2496 1.08503C30.134 1.02703 30.0061 0.997892 29.8769 1.00012H17.4194C16.1679 1.00012 14.9997 1.67139 14.2985 2.79017L0.138057 25.4247C0.0426028 25.5804 -0.00540445 25.7605 -9.03408e-05 25.943C0.00522377 26.1256 0.0636288 26.3026 0.167978 26.4524C0.320185 26.671 0.57126 26.7842 0.826239 26.7842H15.2859L8.06971 38.3193C8.00488 38.4261 7.96174 38.5446 7.94276 38.668C7.92379 38.7915 7.92935 38.9175 7.95913 39.0387C8.0502 39.4251 8.39364 39.6788 8.76309 39.6788H21.2141C22.4747 39.6788 23.652 39.0023 24.3571 37.8744L31.2936 26.7842L38.5084 15.2516C38.6038 15.0961 38.6517 14.9162 38.6464 14.7339C38.6411 14.5516 38.5827 14.3748 38.4785 14.2252" fill="#4E48E0"/>
<path fill-rule="evenodd" clip-rule="evenodd" d="M31.2975 26.7816L24.3598 37.8745C23.6534 39.0037 22.476 39.6788 21.2155 39.6788H8.76445C8.57814 39.6781 8.39752 39.6145 8.25185 39.4984C8.10617 39.3822 8.00397 39.2203 7.96179 39.0388C7.93182 38.9176 7.92604 38.7917 7.94479 38.6682C7.96354 38.5448 8.00645 38.4262 8.07107 38.3194L15.2885 26.7816H31.2975Z" fill="#CC0062"/>
<path fill-rule="evenodd" clip-rule="evenodd" d="M23.345 13.8922H37.8229C38.0765 13.8922 38.3289 14.0053 38.4798 14.2252C38.7036 14.5504 38.6945 14.9563 38.5097 15.2529L31.2962 26.7842H15.282L23.345 13.8922Z" fill="#975D95"/>
<path fill-rule="evenodd" clip-rule="evenodd" d="M0.826201 26.7841C0.697896 26.7861 0.571044 26.7568 0.45659 26.6987C0.342136 26.6407 0.243517 26.5557 0.169241 26.4511C0.06465 26.3016 0.00597957 26.1249 0.000433166 25.9425C-0.00511324 25.7602 0.0427058 25.5802 0.138019 25.4247L14.2984 2.79011C14.9983 1.67133 16.1678 1.00006 17.418 1.00006H29.8768C30.1318 1.00006 30.3868 1.11324 30.5403 1.33309C30.7654 1.65832 30.7549 2.06421 30.5689 2.36081L15.2884 26.7841H0.826201Z" fill="#5CC4CD"/>
<path fill-rule="evenodd" clip-rule="evenodd" d="M124.491 22.3312H132.261L133.336 22.3351C133.336 22.3351 133.336 22.2831 133.29 22.071C133.129 21.3139 132.837 20.6218 132.33 20.0312C131.15 18.6613 129.057 18.193 127.267 18.915C125.732 19.5342 124.893 20.7311 124.491 22.3312ZM130.796 25.3389C128.798 25.3389 126.8 25.3428 124.802 25.3337C124.542 25.3324 124.492 25.3857 124.562 25.6433C125.085 27.5556 126.607 28.867 128.567 29.079C130.772 29.3184 132.789 28.7655 134.677 27.6519L135.015 27.4529L136.607 30.281C136.607 30.281 136.562 30.3071 136.394 30.4189C134.02 32.0061 131.408 32.6929 128.563 32.5264C127.293 32.4523 126.073 32.1804 124.927 31.6223C123.232 30.7988 121.984 29.5226 121.237 27.7937C120.2 25.3909 120.138 22.9348 121.062 20.4891C122.245 17.3461 125.135 15.3895 128.646 15.2829C130.455 15.2269 132.174 15.5625 133.716 16.5525C135.892 17.9497 136.924 20.0286 137.186 22.5432C137.272 23.3654 137.228 24.1837 137.158 25.0059C137.132 25.3051 137.124 25.3441 137.124 25.3441C137.124 25.3441 132.784 25.3389 130.796 25.3389ZM92.5782 28.703C91.3137 28.7013 90.1016 28.1981 89.2078 27.3038C88.3139 26.4094 87.8113 25.197 87.8103 23.9326C87.8113 22.6682 88.3139 21.4558 89.2078 20.5615C90.1016 19.6671 91.3137 19.1639 92.5782 19.1622C93.8424 19.1642 95.0541 19.6676 95.9477 20.5619C96.8413 21.4562 97.3437 22.6684 97.3447 23.9326C97.3437 25.1968 96.8413 26.409 95.9477 27.3033C95.0541 28.1976 93.8424 28.701 92.5782 28.703ZM97.7688 15.2776L97.3785 17.2758C96.1661 16.0218 94.3526 15.292 92.5782 15.292C87.8168 15.292 83.944 19.1687 83.944 23.9326C83.944 28.6965 87.8168 32.5733 92.5782 32.5733C94.3763 32.5671 96.1001 31.8551 97.3785 30.5907L97.7688 32.5811H101.245V15.2789L97.7688 15.2776ZM105.483 32.5811H109.349V16.0907H105.483V32.5811ZM113.378 32.5811H117.245V9.50291H113.378V32.5811ZM109.94 11.587C109.948 11.2505 109.888 10.9158 109.765 10.6027C109.641 10.2895 109.457 10.0042 109.221 9.76343C108.986 9.52268 108.705 9.33136 108.395 9.20071C108.085 9.07006 107.752 9.00271 107.415 9.00262C107.078 9.00254 106.745 9.06971 106.435 9.2002C106.125 9.33069 105.844 9.52187 105.608 9.7625C105.373 10.0031 105.188 10.2884 105.064 10.6014C104.941 10.9145 104.881 11.2492 104.889 11.5857C104.889 12.2557 105.155 12.8983 105.629 13.3721C106.102 13.8459 106.745 14.112 107.415 14.112C108.085 14.112 108.728 13.8459 109.201 13.3721C109.675 12.8983 109.941 12.2557 109.941 11.5857M147.62 15.3076C146.33 15.4116 145.158 16.1467 144.144 16.8622L143.753 15.2776H140.277V23.2288C140.242 23.5302 140.224 23.8334 140.223 24.1368V32.4718H140.277V32.5811H144.144V32.4718H144.2V24.1368C144.2 22.2987 145.767 19.4484 147.933 19.2753C148.472 19.2337 148.983 19.2988 149.702 19.503L150.789 15.6757C149.998 15.4507 148.921 15.2048 147.62 15.3076ZM73.4001 15.2842C72.3346 15.2842 71.2811 15.5099 70.3091 15.9465C69.3371 16.3831 68.4685 17.0206 67.7607 17.817C67.0527 17.0208 66.1841 16.3836 65.2121 15.9472C64.2401 15.5109 63.1867 15.2853 62.1212 15.2855C60.1151 15.2886 58.1921 16.0873 56.7742 17.5065C55.3562 18.9256 54.5591 20.8493 54.5577 22.8555V32.5733H58.424V22.8555C58.4247 21.8747 58.8144 20.9344 59.5075 20.2405C60.2005 19.5467 61.1405 19.1561 62.1212 19.1544C63.1019 19.1561 64.0419 19.5467 64.735 20.2405C65.4281 20.9344 65.8177 21.8747 65.8184 22.8555V32.5733H69.7029V22.8555C69.7036 21.8747 70.0932 20.9344 70.7863 20.2405C71.4794 19.5467 72.4194 19.1561 73.4001 19.1544C74.3808 19.1561 75.3208 19.5467 76.0139 20.2405C76.707 20.9344 77.0966 21.8747 77.0973 22.8555V32.5733H80.9636V22.8555C80.9626 20.8491 80.1656 18.9251 78.7477 17.5056C77.3297 16.0862 75.4065 15.2873 73.4001 15.2842Z" fill="#3A3945"/>
<path fill-rule="evenodd" clip-rule="evenodd" d="M162.058 28.7044C163.323 28.7023 164.534 28.1989 165.428 27.3046C166.322 26.4104 166.824 25.1982 166.825 23.934C166.824 22.6695 166.321 21.4571 165.428 20.5628C164.534 19.6685 163.322 19.1652 162.057 19.1635C160.793 19.1656 159.581 19.669 158.688 20.5633C157.794 21.4576 157.292 22.6697 157.291 23.934C157.292 25.1982 157.794 26.4104 158.688 27.3046C159.581 28.1989 160.793 28.7023 162.057 28.7044H162.058ZM157.257 9.50555V17.2772C158.478 16.1545 160.281 15.2933 162.057 15.2933C166.818 15.2933 170.691 19.17 170.691 23.934C170.691 28.6979 166.818 32.5746 162.057 32.5746C160.281 32.5746 158.584 31.7576 157.257 30.5907L156.867 32.5811H153.39V9.50686L157.257 9.50555Z" fill="#3A3945"/>
<path fill-rule="evenodd" clip-rule="evenodd" d="M181.163 32.5811C185.94 32.5811 189.813 28.7082 189.813 23.9307C189.813 19.1532 185.94 15.2803 181.163 15.2803C176.385 15.2803 172.513 19.1532 172.513 23.9307C172.513 28.7082 176.385 32.5811 181.163 32.5811ZM181.163 28.6872C183.79 28.6872 185.919 26.5576 185.919 23.9307C185.919 21.3038 183.79 19.1743 181.163 19.1743C178.536 19.1743 176.406 21.3038 176.406 23.9307C176.406 26.5576 178.536 28.6872 181.163 28.6872Z" fill="#3A3945"/>
<path fill-rule="evenodd" clip-rule="evenodd" d="M200.285 32.5811C205.062 32.5811 208.935 28.7082 208.935 23.9307C208.935 19.1532 205.062 15.2803 200.285 15.2803C195.507 15.2803 191.635 19.1532 191.635 23.9307C191.635 28.7082 195.507 32.5811 200.285 32.5811ZM200.285 28.6872C202.912 28.6872 205.041 26.5576 205.041 23.9307C205.041 21.3038 202.912 19.1743 200.285 19.1743C197.658 19.1743 195.529 21.3038 195.529 23.9307C195.529 26.5576 197.658 28.6872 200.285 28.6872Z" fill="#3A3945"/>
<path d="M214.476 27.1479L214.465 22.222H215.119L221.341 15.2671H226.109L218.455 23.7888H217.61L214.476 27.1479ZM210.757 32.581V9.49579H214.837V32.581H210.757ZM221.623 32.581L215.987 24.7018L218.737 21.8275L226.504 32.581H221.623Z" fill="#3A3945"/>
<path fill-rule="evenodd" clip-rule="evenodd" d="M234.26 15.2808C236.076 15.3159 237.892 15.9521 239.363 17.4494L239.591 17.6797L237.531 20.1892L237.335 20.0018C236.383 19.1016 235.267 18.5552 233.938 18.5045C233.522 18.4889 233.115 18.5435 232.735 18.7256C231.707 19.2174 231.556 20.4246 232.431 21.1557C232.719 21.3964 233.059 21.5408 233.406 21.6761C234.65 22.1626 235.917 22.5997 237.114 23.1995C237.989 23.6392 238.775 24.1973 239.327 25.0272C240.356 26.5753 240.185 28.9066 238.946 30.3922C237.861 31.6918 236.422 32.3084 234.788 32.5049C232.454 32.7872 230.31 32.298 228.436 30.8215C227.962 30.4395 227.537 30.0023 227.167 29.5193C227.055 29.3762 227.024 29.3307 227.024 29.3307L229.262 26.9214L229.436 27.1295C230.336 28.2119 231.467 28.9196 232.861 29.1693C233.659 29.3111 234.443 29.2812 235.176 28.8857C235.916 28.4864 236.237 27.7826 236.008 27.0892C235.882 26.7106 235.614 26.4452 235.293 26.2254C234.863 25.9327 234.381 25.7532 233.905 25.5606C232.886 25.1456 231.845 24.7866 230.853 24.3117C229.531 23.6795 228.536 22.7428 228.17 21.2702C227.587 18.9221 228.802 16.6806 231.112 15.7895C232.048 15.4278 233.017 15.2821 234.26 15.2808Z" fill="#3A3945"/>
</svg>
